<?xml version="1.0" standalone="no"?>
<!DOCTYPE svg PUBLIC "-//W3C//DTD SVG 20010904//EN"
 "http://www.w3.org/TR/2001/REC-SVG-20010904/DTD/svg10.dtd">
<svg version="1.0" xmlns="http://www.w3.org/2000/svg"
 width="1080.000000pt" height="1080.000000pt" viewBox="0 0 1080.000000 1080.000000"
 preserveAspectRatio="xMidYMid meet">

<g transform="translate(0.000000,1080.000000) scale(0.100000,-0.100000)"
fill="#000000" stroke="none">
<path d="M4930 6478 c-14 -7 -35 -33 -48 -58 -20 -39 -23 -55 -19 -116 5 -64
18 -105 60 -194 7 -14 31 -44 54 -67 111 -112 223 -61 223 101 0 194 -159 391
-270 334z"/>
<path d="M4536 6231 c-108 -113 96 -410 282 -411 62 0 102 40 102 104 0 79
-35 152 -109 226 -111 111 -216 142 -275 81z"/>
<path d="M5351 6215 c-37 -32 -53 -80 -53 -162 0 -153 139 -306 239 -260 38
17 73 95 73 165 0 195 -152 346 -259 257z"/>
<path d="M5112 5813 c-36 -7 -88 -67 -111 -128 -31 -82 -44 -222 -31 -332 11
-97 12 -103 43 -173 26 -60 43 -78 83 -86 76 -14 150 29 245 142 71 86 89 97
176 114 81 16 120 41 143 93 25 54 25 104 1 144 -63 103 -339 236 -482 232
-24 -1 -54 -4 -67 -6z"/>
<path d="M4542 5776 c-34 -16 -62 -65 -62 -109 0 -38 48 -123 94 -165 120
-111 272 -123 313 -25 48 115 -104 296 -261 309 -32 3 -63 -1 -84 -10z"/>
<path d="M6914 4604 c-106 -52 -231 -225 -305 -421 -27 -71 -22 -69 -171 -79
l-106 -7 33 105 c64 204 67 304 9 359 -22 21 -35 24 -97 24 -63 0 -82 -5 -150
-38 -131 -64 -245 -197 -207 -242 21 -25 40 -17 103 42 68 62 155 108 187 98
50 -16 47 -76 -12 -252 l-33 -98 -58 -6 c-73 -8 -111 -34 -115 -79 -4 -42 8
-53 68 -60 l49 -5 -56 -130 c-69 -163 -81 -201 -67 -222 30 -48 110 -32 150
30 12 18 50 103 84 188 l62 155 126 12 c69 7 127 10 129 8 3 -2 0 -30 -6 -62
-42 -225 28 -354 191 -354 56 0 77 5 135 36 122 62 210 174 173 219 -18 22
-23 20 -82 -31 -103 -89 -184 -109 -235 -58 -25 25 -26 28 -20 127 9 161 12
166 112 216 146 72 237 176 279 320 25 85 21 153 -10 190 -23 27 -32 31 -77
31 -29 0 -66 -7 -83 -16z m79 -134 c-2 -67 -38 -153 -88 -207 -42 -48 -145
-114 -145 -94 0 19 79 191 115 251 65 107 121 131 118 50z"/>
<path d="M2190 4584 c-14 -2 -63 -9 -110 -15 -142 -19 -253 -64 -312 -126 -55
-58 -87 -181 -65 -249 11 -32 52 -47 93 -34 49 17 63 42 51 88 -20 74 22 140
103 162 50 14 144 29 148 25 2 -1 -16 -72 -40 -156 l-43 -154 -55 -8 c-67 -11
-100 -38 -100 -82 0 -42 16 -55 68 -55 31 0 43 -4 40 -12 -3 -7 -15 -43 -27
-81 -30 -89 -76 -154 -131 -185 -39 -22 -52 -24 -95 -18 -44 7 -56 15 -101 63
-43 46 -56 55 -76 50 -28 -7 -48 -44 -48 -89 0 -23 11 -42 43 -73 113 -114
333 -93 457 42 51 55 87 123 126 233 l22 65 124 5 c95 4 130 9 151 23 28 18
41 50 35 88 -3 24 -6 24 -134 29 l-131 5 34 120 c18 66 38 138 44 159 l11 39
214 -6 c210 -6 215 -5 239 16 14 12 28 36 31 54 9 46 -19 59 -150 72 -101 10
-358 13 -416 5z"/>
<path d="M4031 4575 c-143 -32 -252 -108 -301 -210 -46 -95 -25 -196 49 -236
l34 -18 -29 -11 c-75 -27 -92 -36 -141 -67 -52 -34 -93 -79 -114 -127 -8 -17
-20 -26 -36 -26 -30 0 -30 26 -2 99 45 120 11 171 -94 138 -66 -21 -151 -95
-218 -190 -27 -39 -49 -67 -49 -64 0 4 21 59 46 122 25 63 44 122 40 130 -8
22 -65 19 -104 -5 -44 -27 -92 -131 -132 -286 -8 -33 -22 -51 -64 -84 -69 -53
-102 -53 -99 0 1 19 29 106 63 193 34 88 60 166 58 175 -4 22 -51 27 -89 12
-23 -10 -42 -38 -94 -139 -75 -146 -145 -241 -176 -241 -20 0 -21 4 -17 48 3
26 28 106 58 179 30 76 50 139 46 149 -9 22 -88 14 -117 -12 -43 -39 -114
-213 -140 -343 -24 -122 8 -191 86 -191 54 0 100 30 143 94 l32 48 0 -44 c0
-45 18 -81 49 -98 30 -15 129 6 184 40 26 16 50 30 53 30 2 0 4 -10 4 -23 0
-33 18 -47 60 -47 45 0 66 22 108 112 54 118 163 268 194 268 6 0 8 -13 4 -32
-21 -110 -20 -115 13 -149 31 -31 34 -32 99 -26 l67 5 20 -41 c34 -71 123
-116 269 -136 134 -19 412 14 526 62 10 5 20 -3 30 -26 14 -29 19 -32 65 -35
70 -3 113 24 207 133 42 50 82 90 88 89 5 -1 39 -2 74 -2 l64 -2 6 -54 c10
-73 49 -128 109 -151 34 -13 68 -16 135 -14 80 4 97 8 161 41 65 33 71 35 71
16 0 -40 19 -58 60 -58 22 0 45 7 54 16 9 8 41 63 71 122 57 112 129 213 166
233 22 11 22 10 14 -42 -13 -84 -9 -111 20 -136 83 -73 318 42 304 147 -6 36
-31 36 -80 1 -45 -33 -86 -40 -95 -16 -4 8 6 47 20 86 31 84 32 110 6 134 -24
21 -81 15 -140 -15 -50 -26 -136 -110 -183 -180 -48 -71 -47 -52 3 67 50 120
51 143 9 143 -64 0 -99 -28 -135 -106 -18 -39 -44 -108 -57 -153 -23 -79 -26
-83 -76 -117 -67 -46 -121 -64 -186 -64 -41 0 -56 5 -74 24 l-22 24 68 22 c89
28 144 61 180 107 92 118 67 247 -50 260 -99 12 -222 -55 -287 -155 -29 -45
-37 -51 -74 -54 -22 -3 -42 -4 -43 -3 -1 0 9 29 23 64 29 71 27 124 -6 141
-84 45 -200 -65 -205 -195 -1 -49 -6 -58 -65 -129 -34 -42 -65 -76 -67 -76 -5
0 -1 32 29 238 22 156 19 172 -31 172 -79 -1 -93 -22 -115 -175 -9 -61 -19
-124 -22 -142 -4 -30 -10 -34 -69 -52 -242 -75 -530 -65 -575 20 -18 32 -7
110 19 146 42 57 116 88 245 103 83 10 111 25 127 69 17 43 3 58 -59 66 -83
10 -119 28 -139 69 -14 30 -14 42 -5 74 17 57 45 87 110 119 47 23 70 28 134
28 67 0 80 -3 102 -24 30 -28 33 -59 11 -121 -20 -57 -19 -87 4 -100 95 -50
195 95 167 242 -7 41 -56 93 -105 114 -52 22 -202 27 -280 9z m1147 -603 c3
-26 -3 -39 -30 -66 -33 -32 -123 -75 -135 -63 -11 12 29 97 62 133 28 29 40
35 67 32 29 -3 33 -7 36 -36z"/>
<path d="M7318 4116 c-142 -51 -251 -228 -235 -381 11 -109 61 -157 168 -163
51 -3 77 1 111 16 61 27 124 85 160 148 27 49 31 52 74 56 l46 3 -7 -41 c-10
-69 -8 -154 5 -169 17 -21 83 -19 102 3 8 9 43 71 77 138 64 124 146 233 163
216 6 -6 -4 -59 -27 -142 -50 -178 -42 -230 35 -230 47 0 55 10 118 135 72
145 168 266 186 236 3 -5 -12 -61 -34 -124 -47 -136 -51 -187 -15 -222 37 -38
121 -35 202 5 34 17 67 37 73 45 11 13 19 10 55 -24 50 -46 83 -55 193 -50 66
3 90 10 153 41 100 49 163 106 176 156 10 38 2 72 -16 72 -5 0 -39 -23 -77
-51 -97 -73 -157 -99 -225 -99 -41 0 -63 5 -80 19 -29 23 -21 33 41 50 108 31
182 89 219 171 55 122 -9 212 -141 197 -69 -8 -131 -42 -187 -102 -59 -63 -89
-118 -105 -199 -11 -54 -18 -65 -55 -93 -23 -18 -53 -33 -67 -33 -37 0 -31 40
26 195 55 148 63 207 31 225 -69 37 -214 -51 -307 -186 -20 -30 -39 -53 -40
-51 -2 2 10 37 26 78 35 89 39 144 11 159 -75 40 -215 -51 -310 -201 -23 -35
-41 -60 -41 -55 0 5 21 60 46 123 25 62 43 120 40 128 -8 23 -68 18 -107 -8
-25 -16 -43 -43 -65 -96 -18 -40 -36 -76 -40 -81 -5 -4 -28 -10 -50 -13 l-42
-5 -4 54 c-6 66 -45 130 -93 150 -42 17 -118 17 -167 0z m1521 -120 c31 -37
-20 -100 -112 -140 l-57 -26 6 28 c25 104 123 187 163 138z m-1464 -42 c-5
-38 -2 -55 20 -100 22 -45 24 -57 14 -76 -31 -61 -99 -100 -137 -79 -36 19
-47 66 -33 134 7 34 19 73 26 88 19 36 72 79 97 79 18 0 20 -4 13 -46z"/>
</g>
</svg>
